<!-- icon666.com - MILLIONS vector ICONS FREE --><svg fill="none" viewBox="0 0 32 32" xmlns="http://www.w3.org/2000/svg"><g clip-rule="evenodd" fill="rgb(0,0,0)" fill-rule="evenodd"><path d="m16 11c-2.7614 0-5 2.2386-5 5s2.2386 5 5 5 5-2.2386 5-5-2.2386-5-5-5zm-3 5c0-1.6569 1.3431-3 3-3s3 1.3431 3 3-1.3431 3-3 3-3-1.3431-3-3z"></path><path d="m25.3288 11.4222c-5.1647-4.56292-13.4929-4.56292-18.65756 0l-4.33334 3.8284c-.21485.1898-.3379.4627-.3379.7494s.12305.5596.3379.7494l4.33334 3.8284c5.16466 4.5629 13.49286 4.5629 18.65756 0l4.3333-3.8284c.2149-.1898.3379-.4627.3379-.7494s-.123-.5596-.3379-.7494zm-17.33337 1.4988c4.40827-3.89466 11.60087-3.89466 16.00917 0l3.485 3.079-3.485 3.079c-4.4083 3.8947-11.6009 3.8947-16.00917 0l-3.48508-3.079z"></path></g></svg>